<?xml version="1.0" encoding="UTF-8"?>
<svg id="Layer_2" data-name="Layer 2" xmlns="http://www.w3.org/2000/svg" viewBox="0 0 334.14 284.42">
  <g id="Layer_1-2" data-name="Layer 1">
    <g>
      <g>
        <path d="M147.17,249.32c-.27-.5-.5-.98-.72-1.43-.08-.19-.17-.36-.25-.55-.07.22-.14.44-.21.66-.17.5-.38,1.02-.6,1.56-.2.53-.41,1.08-.63,1.64l-2.37,5.56,8.81-.57-3.08-5.21c-.35-.6-.67-1.15-.96-1.65Z"/>
        <path d="M293.73,216.01l-229.9,14.87,3.46,53.54,229.9-14.87-3.46-53.54ZM115.91,268.04l-5.97.39-7.1-14.27-4.92,15.05-6.67.43-10.98-26.53,7.87-.51,4.8,11.71c.19.51.42,1.13.7,1.86.28.73.55,1.52.81,2.36.1.32.19.62.29.93.13-.67.27-1.37.45-2.1.29-1.08.61-2.15.96-3.21l3.18-9.23,6.2-.4,4.3,8.67c.51,1.06.97,2.1,1.37,3.14.31.72.58,1.42.83,2.09,0-.01,0-.03,0-.04.11-.68.22-1.35.34-2.01.11-.68.23-1.33.34-1.93.14-.63.28-1.16.4-1.58l3.96-12.12,7.48-.48-8.67,27.8ZM156.66,265.4l-2.35-3.97-14.3.92-1.8,4.24-7.63.49,11.81-28,6.82-.44,15.24,26.25-7.79.5ZM188.15,263.36l-7.67.5-1.33-20.5-10.93.71-.43-6.63,29.8-1.93.43,6.63-11.2.72,1.33,20.5ZM234.69,258.25c-1.27.78-2.73,1.47-4.38,2.07-1.65.57-3.4.92-5.26,1.04-2.43.16-4.71-.03-6.85-.57-2.14-.54-4.03-1.37-5.69-2.51s-2.98-2.54-3.97-4.22c-.99-1.67-1.55-3.57-1.69-5.69-.14-2.09.18-4.03.95-5.82.79-1.79,1.92-3.36,3.39-4.7,1.47-1.34,3.22-2.41,5.24-3.22,2.05-.83,4.27-1.33,6.67-1.48,1.73-.11,3.4-.04,4.99.22s3.1.65,4.51,1.19c1.41.5,2.63,1.11,3.66,1.82l-3.91,6.25c-.65-.48-1.42-.92-2.3-1.33-.89-.44-1.89-.76-3.02-.97-1.13-.24-2.43-.31-3.91-.21-1.08.07-2.13.29-3.15.67-1.02.35-1.94.86-2.78,1.54-.81.65-1.45,1.44-1.91,2.38-.43.94-.61,2.01-.53,3.23.08,1.21.42,2.26,1.02,3.12.6.87,1.39,1.57,2.35,2.1.99.53,2.08.92,3.27,1.15,1.18.21,2.39.27,3.63.19,1.47-.09,2.75-.37,3.84-.83,1.08-.49,2.02-1.03,2.81-1.62.79-.6,1.5-1.13,2.11-1.61l3.94,5.62c-.73.67-1.75,1.4-3.05,2.18ZM271.41,257.98l-.65-10-14.18.92.65,10-7.67.5-1.76-27.13,7.67-.5.67,10.39,14.18-.92-.67-10.39,7.67-.5,1.75,27.13-7.67.5Z"/>
      </g>
      <path d="M334.14,190.91l-16.51,13.21c-6.51-4.4-13.69-6.99-21.54-7.75v-1.87c2.68-1.82,4.02-5.41,4.02-10.77v-29.29c0-2.58-.33-4.31-1.01-5.17-.57-.96-2.11-1.58-4.59-1.87v-1.87c7.27-2.2,14.64-6.84,22.11-13.93l16.65,9.19-7.18,10.48-11.92-6.6v43.65l12.35,5.6,6.17-4.88,1.44,1.87Z"/>
      <path d="M294.78,192.49l-14.93,11.63c-2.49-2.58-4.88-4.83-7.18-6.75-2.2-1.91-4.36-3.49-6.46-4.74v-1.44c3.06-1.05,4.59-4.16,4.59-9.33v-36.76l-5.02-4.31,11.92-9.33,11.92,9.76-4.88,4.45v44.36l4.02,3.59,4.31-3.59,1.72,2.44ZM278.99,125.59l3.45-16.37,11.92.43-11.92,16.22-3.45-.29Z"/>
      <path d="M235.18,139.79l20.24-26.85v21.39h12.06v7.75h-12.06v45.8c.48.38,1.1.86,1.87,1.43.77.48,1.67,1.1,2.73,1.87l2.3,1.72,4.45-3.73,2.01,2.44-15.22,12.49c-4.5-4.88-10.1-8.18-16.8-9.91v-2.01c3.06-1.91,4.6-5.55,4.6-10.91v-39.2h-6.17v-2.3Z"/>
      <path d="M180.58,202.54l18.23-25.7-13.35-7.32v-25.41c4.5-1.34,8.04-2.92,10.62-4.74,1.24-.96,3.97-3.54,8.18-7.75,6.89,3.45,13.11,5.17,18.67,5.17,1.72,0,3.21-.34,4.45-1.01,1.72-.86,2.58-2.06,2.58-3.59,0-1.24-.48-2.35-1.43-3.3-.1,0-.14-.05-.14-.14-1.05-1.05-1.58-2.35-1.58-3.88,0-2.78,1.39-4.16,4.16-4.16,3.45,0,5.17,2.01,5.17,6.03v1.29c-.48,2.87-2.54,6.84-6.17,11.92l-12.06,16.65,14.65,8.47v28c-7.08,2.11-13.69,5.79-19.81,11.06-5.84-3.54-11.15-5.31-15.94-5.31-5.07,0-9.86,1.77-14.36,5.31l-1.87-1.58ZM218.05,172.67l-8.33-4.6-15.22,21.54,3.59-1.01c.48-.1.91-.19,1.29-.29.38-.1.81-.19,1.29-.29h.72c.29,0,.67-.05,1.15-.14h2.73c.38,0,.67.05.86.14,3.06.1,7.04,1.48,11.92,4.16v-19.53ZM199.53,161.9l7.04,4.02,13.64-19.1c-1.24.38-2.63.58-4.16.58h-1.58c-1.05,0-2.06-.05-3.01-.14-.86-.19-1.77-.38-2.73-.57-3.54-.96-6.6-2.25-9.19-3.88v19.1Z"/>
      <path d="M184.71,192.2l-15.22,11.92c-.38-.38-.86-.81-1.44-1.29-.48-.38-1.05-.91-1.72-1.58-2.97-3.25-4.74-7.37-5.31-12.35l-18.95,15.22c-7.37-5.65-11.06-11.58-11.06-17.8,0-7.85,3.83-16.03,11.49-24.55l2.01-2.3-12.35-22.11c0,.1.14.14.43.14h.72c.1.1.19.14.29.14h1.58c6.89,0,12.73-2.01,17.52-6.03.19.1.38.19.57.29.19.1.48.24.86.43,7.18,3.73,13.16,5.6,17.95,5.6,2.11,0,4.26-1.05,6.46-3.16l1.87,1.15c-3.26,4.98-4.93,9.71-5.02,14.21-.1,1.05-.14,2.15-.14,3.3v33.31c.1,3.45,1.29,5.31,3.59,5.6.57,0,1.72-.38,3.45-1.15l.29-.29.14-.14c.19,0,.38-.1.57-.29l1.44,1.72ZM153.27,164.63l-7.18-3.16c-.29,0-.76,1.44-1.43,4.31-1.15,4.79-1.72,8.61-1.72,11.49,0,4.98,2.97,10.19,8.9,15.65l9.19-7.61v-17.37l-7.75-3.3ZM161.02,147.98l-24.26-8.04,10.62,19.24,13.64,5.89v-17.09Z"/>
      <path d="M134.81,193.06l-13.64,11.06c-4.88-4.98-10.67-8.33-17.37-10.05v-2.3c3.25-1.53,4.88-4.93,4.88-10.19v-56.42c0-4.4-.33-7.47-1-9.19-1.05-2.87-3.06-5.07-6.03-6.6l.72-2.3c4.6,2.01,8.33,4.36,11.2,7.04,3.92-4.4,9.24-7.47,15.94-9.19l.72,2.15c-.29.29-.67.67-1.15,1.15-.38.38-.91.81-1.58,1.29-2.01,1.72-3.4,4.07-4.16,7.04-.38,1.53-.57,4.31-.57,8.33v63.32l7.03,4.88,3.01-2.3,2.01,2.3Z"/>
      <path d="M30.29,221.2v-25.99c-11.01.86-20.58,3.78-28.71,8.76l-1.58-1.72c9.95-10.82,20.05-17.08,30.29-18.81,0-10.43-2.78-18.14-8.33-23.12-4.79-4.31-9.81-6.89-15.08-7.75l-.72-2.3,24.12-16.8c0-6.51-1.1-11.73-3.3-15.65-1.63-2.78-4.4-4.16-8.33-4.16-2.97,0-6.22,1.15-9.76,3.44l-2.01-2.44c5.74-6.22,12.01-9.33,18.81-9.33,5.74,0,10.24,1.68,13.5,5.03,3.35,3.35,5.07,7.9,5.17,13.64l6.89-5.03v-12.35h3.02v10.34l17.23-11.77c8.81,5.36,15.12,10.19,18.95,14.5,5.46,6.22,8.18,13.45,8.18,21.68v43.93l-20.67,18.38c-7.47-3.83-15.36-6.22-23.69-7.18v24.7h-23.98ZM44.36,218.04h6.89v-95.48l-6.89,4.88v90.6ZM54.27,182.44c9.19.86,19.19,3.73,30.01,8.61v-21.68c-5.65-3.35-10.58-5.02-14.79-5.02s-9.38,1.72-15.22,5.17v12.92ZM54.27,165.93c5.65-3.06,10.77-4.6,15.36-4.6s9.38,1.39,14.64,4.16v-19.67c-5.84,3.54-11.15,5.31-15.94,5.31-3.83,0-8.52-1.58-14.07-4.74v19.53ZM17.23,146.26c5.74,3.06,10.1,6.36,13.07,9.91v-18.81l-13.07,8.9ZM54.27,142.38c4.5,3.64,9.24,5.46,14.21,5.46h1.29c.38-.1.81-.14,1.29-.14,4.79-.57,9.19-2.44,13.21-5.6v-.43c0-.1.05-.19.14-.29v-.72c0-5.65-2.2-10.53-6.6-14.65-2.87-2.78-7.51-5.79-13.93-9.04l-2.3-1.15-7.32,4.74v21.82Z"/>
      <path d="M329.26,88.15l-13.64,11.06c-4.88-4.98-10.67-8.33-17.37-10.05v-2.3c3.26-1.53,4.88-4.93,4.88-10.19V20.24c0-4.4-.33-7.47-1.01-9.19-1.05-2.87-3.06-5.07-6.03-6.6l.72-2.3c4.59,2.01,8.33,4.36,11.2,7.04,3.92-4.4,9.24-7.47,15.94-9.19l.72,2.15c-.29.29-.67.67-1.15,1.15-.38.38-.91.81-1.58,1.29-2.01,1.72-3.4,4.07-4.16,7.04-.38,1.53-.58,4.31-.58,8.33v63.32l7.04,4.88,3.01-2.3,2.01,2.3Z"/>
      <path d="M299.51,87.29l-15.22,11.92c-.38-.38-.86-.81-1.44-1.29-.48-.38-1.05-.91-1.72-1.58-2.97-3.25-4.74-7.37-5.31-12.35l-18.95,15.22c-7.37-5.65-11.06-11.58-11.06-17.8,0-7.85,3.83-16.03,11.49-24.55l2.01-2.3-12.35-22.11c0,.1.14.14.43.14h.72c.1.1.19.14.29.14h1.58c6.89,0,12.73-2.01,17.52-6.03.19.1.38.19.57.29.19.1.48.24.86.43,7.18,3.73,13.16,5.6,17.95,5.6,2.11,0,4.26-1.05,6.46-3.16l1.87,1.15c-3.25,4.98-4.93,9.72-5.02,14.21-.1,1.05-.14,2.15-.14,3.3v33.31c.1,3.45,1.29,5.31,3.59,5.6.57,0,1.72-.38,3.45-1.15l.29-.29.14-.14c.19,0,.38-.1.58-.29l1.43,1.72ZM268.06,59.73l-7.18-3.16c-.29,0-.77,1.44-1.44,4.31-1.15,4.79-1.72,8.61-1.72,11.49,0,4.98,2.97,10.19,8.9,15.65l9.19-7.61v-17.37l-7.75-3.3ZM275.82,43.07l-24.26-8.04,10.62,19.24,13.64,5.89v-17.09Z"/>
      <path d="M193.24,85.57c2.58-1.44,3.88-4.69,3.88-9.76V18.09c0-4.4-.91-7.94-2.73-10.62l-1.58-1.58c-.29-.29-.62-.57-1.01-.86-.29-.29-.62-.62-1-1.01l.86-1.87c3.54,1.44,7.08,3.54,10.62,6.32,4.4-4.69,9.81-7.51,16.22-8.47l.43,1.29c-3.35,2.2-5.5,4.79-6.46,7.75-.86,2.3-1.29,5.7-1.29,10.19v24.41l20.39-17.09c2.97,2.87,4.83,4.74,5.6,5.6,1.82,2.2,2.92,4.45,3.3,6.75.48,2.3.72,5.26.72,8.9v39.2c-9.19,3.64-16.32,7.71-21.39,12.2-6.89-6.13-15.75-10.15-26.56-12.06v-1.58ZM211.18,46.95v34.17l15.79,6.75v-38.19c0-5.74-1.44-9.86-4.31-12.35l-11.49,9.62Z"/>
      <path d="M188.11,88.01c-2.49,1.05-4.64,2.01-6.46,2.87-1.82.86-3.25,1.58-4.31,2.15-1.91,1.05-3.73,2.11-5.46,3.16-1.72.96-3.25,1.96-4.59,3.01-8.42-6.32-17.13-9.86-26.13-10.62v-1.87c2.11-1.53,3.25-3.25,3.45-5.17.19-2.11.34-4.02.43-5.74.1-1.72.14-3.3.14-4.74v-32.73c7.47-2.3,14.21-6.17,20.24-11.63,6.89,4.69,14.45,8.14,22.69,10.34v50.97ZM159.11,37.76v43.5l14.93,6.46v-43.5l-14.93-6.46Z"/>
      <path d="M146.54,88.15l-13.64,11.06c-4.88-4.98-10.67-8.33-17.37-10.05v-2.3c3.25-1.53,4.88-4.93,4.88-10.19V20.24c0-4.4-.33-7.47-1-9.19-1.05-2.87-3.06-5.07-6.03-6.6l.72-2.3c4.59,2.01,8.33,4.36,11.2,7.04,3.92-4.4,9.24-7.47,15.94-9.19l.72,2.15c-.29.29-.67.67-1.15,1.15-.38.38-.91.81-1.58,1.29-2.01,1.72-3.4,4.07-4.16,7.04-.38,1.53-.57,4.31-.57,8.33v63.32l7.04,4.88,3.01-2.3,2.01,2.3Z"/>
      <path d="M108.15,10.34l-21.68,17.23c7.94.86,14.31,3.49,19.1,7.9,5.36,4.79,8.04,11.01,8.04,18.66,0,13.11-6.08,24.02-18.23,32.74-11.1,7.94-23.35,11.92-36.76,11.92-10.24,0-19.05-3.35-26.42-10.05-7.47-6.7-11.2-15.12-11.2-25.27s2.82-18.71,8.47-26.27c2.39-3.16,5.17-6.37,8.33-9.62,3.25-3.35,7.04-6.75,11.34-10.19,3.64-2.87,7.27-5.74,10.91-8.61,3.64-2.87,7.27-5.79,10.91-8.76,11.2,5.93,20.82,9.09,28.86,9.48,2.3.1,4.74-.14,7.32-.72l1.01,1.58ZM69.1,43.36c-.96.48-2.15,1.15-3.59,2.01-1.34.77-2.92,1.72-4.74,2.87v10.62c0,5.17-1,8.76-3.02,10.77-.38.38-.81.81-1.29,1.29-.48.38-1.1.91-1.87,1.58-1.15.86-2.58,1.96-4.31,3.3-1.72,1.24-3.73,2.78-6.03,4.59,6.51,7.66,14.79,11.77,24.84,12.35v-49.39ZM72.26,92.61c5.17-.1,10.05-1.44,14.64-4.02,4.88-2.78,8.42-6.41,10.62-10.91-4.31-2.11-8.14-3.16-11.49-3.16-4.79,0-9.38,1.44-13.78,4.31v13.78ZM46.7,24.26c-8.23,8.71-12.35,18.52-12.35,29.43,0,8.23,2.58,16.27,7.75,24.12,3.06-3.54,4.59-9,4.59-16.37V24.26ZM72.26,74.66c4.59-2.3,9.14-3.45,13.64-3.45,4.12,0,8.52,1.2,13.21,3.59.96-2.2,1.68-4.4,2.15-6.6.57-2.3.91-4.55,1-6.75-4.88,2.87-9.76,4.31-14.64,4.31s-9.81-1.44-15.36-4.31v13.21ZM72.26,57.57c4.5,3.25,9.19,4.93,14.07,5.03,5.74.19,10.96-1.44,15.65-4.88-.96-4.98-3.3-9.09-7.04-12.35-3.64-3.25-7.94-4.88-12.92-4.88-3.06,0-6.32.62-9.76,1.87v15.22ZM60.77,43.36l28.28-22.4c-11.68-2.97-21.11-6.08-28.28-9.33v31.73Z"/>
    </g>
  </g>
</svg>