<?xml version="1.0" encoding="UTF-8"?>
<svg id="Layer_2" data-name="Layer 2" xmlns="http://www.w3.org/2000/svg" viewBox="0 0 334.1 271.36">
  <g id="Layer_1-2" data-name="Layer 1">
    <g>
      <g>
        <path d="M334.1,191.1l-16.5,13.2c-6.5-4.4-13.7-7-21.5-7.8v-1.9c2.7-1.8,4-5.4,4-10.8v-29.3c0-2.6-.3-4.3-1-5.2-.6-1-2.1-1.6-4.6-1.9v-1.9c7.3-2.2,14.6-6.8,22.1-13.9l16.7,9.2-7.2,10.5-11.9-6.6v43.6l12.3,5.6,6.2-4.9,1.4,1.9v.2Z"/>
        <path d="M294.7,192.6l-14.9,11.6c-2.5-2.6-4.9-4.8-7.2-6.7-2.2-1.9-4.4-3.5-6.5-4.7v-1.4c3.1-1.1,4.6-4.2,4.6-9.3v-36.8l-5-4.3,11.9-9.3,11.9,9.8-4.9,4.5v44.4l4,3.6,4.3-3.6,1.7,2.4.1-.2Z"/>
        <path d="M235.1,139.9l20.2-26.8v21.4h12.1v7.8h-12.1v45.8c.5.4,1.1.9,1.9,1.4.8.5,1.7,1.1,2.7,1.9l2.3,1.7,4.5-3.7,2,2.4-15.2,12.5c-4.5-4.9-10.1-8.2-16.8-9.9v-2c3.1-1.9,4.6-5.6,4.6-10.9v-39.2h-6.2v-2.4Z"/>
        <path d="M180.5,202.7l18.2-25.7-13.4-7.3v-25.4c4.5-1.3,8-2.9,10.6-4.7,1.2-1,4-3.5,8.2-7.8,6.9,3.4,13.1,5.2,18.7,5.2s3.2-.3,4.5-1c1.7-.9,2.6-2.1,2.6-3.6s-.5-2.3-1.4-3.3c0,0-.1,0-.1-.1-1.1-1.1-1.6-2.3-1.6-3.9,0-2.8,1.4-4.2,4.2-4.2s5.2,2,5.2,6v1.3c-.5,2.9-2.5,6.8-6.2,11.9l-12.1,16.7,14.6,8.5v28c-7.1,2.1-13.7,5.8-19.8,11.1-5.8-3.5-11.2-5.3-15.9-5.3s-9.9,1.8-14.4,5.3l-1.9-1.6v-.1ZM218,172.8l-8.3-4.6-15.2,21.5,3.6-1c.5,0,.9-.2,1.3-.3.4,0,.8-.2,1.3-.3h.7c.3,0,.7,0,1.1-.1h2.7c.4,0,.7,0,.9.1,3.1,0,7,1.5,11.9,4.2v-19.5h0ZM199.5,162.1l7,4,13.6-19.1c-1.2.4-2.6.6-4.2.6h-1.6c-1.1,0-2.1,0-3-.1-.9-.2-1.8-.4-2.7-.6-3.5-1-6.6-2.2-9.2-3.9v19.1h.1Z"/>
        <path d="M184.7,192.3l-15.2,11.9c-.4-.4-.9-.8-1.4-1.3-.5-.4-1.1-.9-1.7-1.6-3-3.3-4.7-7.4-5.3-12.3l-19,15.2c-7.4-5.6-11.1-11.6-11.1-17.8s3.8-16,11.5-24.6l2-2.3-12.3-22.1s.1.1.4.1h.7s.2.1.3.1h1.6c6.9,0,12.7-2,17.5-6,.2,0,.4.2.6.3.2,0,.5.2.9.4,7.2,3.7,13.2,5.6,17.9,5.6s4.3-1.1,6.5-3.2l1.9,1.1c-3.3,5-4.9,9.7-5,14.2,0,1.1-.1,2.2-.1,3.3v33.3c0,3.4,1.3,5.3,3.6,5.6.6,0,1.7-.4,3.4-1.1l.3-.3h.1c.2-.1.4-.2.6-.4l1.4,1.7-.1.2ZM153.2,164.8l-7.2-3.2c-.3,0-.8,1.4-1.4,4.3-1.1,4.8-1.7,8.6-1.7,11.5,0,5,3,10.2,8.9,15.7l9.2-7.6v-17.4l-7.8-3.3ZM161,148.1l-24.3-8,10.6,19.2,13.6,5.9v-17.1h.1Z"/>
        <path d="M134.8,193.2l-13.6,11.1c-4.9-5-10.7-8.3-17.4-10.1v-2.3c3.3-1.5,4.9-4.9,4.9-10.2v-56.4c0-4.4-.3-7.5-1-9.2-1.1-2.9-3.1-5.1-6-6.6l.7-2.3c4.6,2,8.3,4.4,11.2,7,3.9-4.4,9.2-7.5,15.9-9.2l.7,2.2-1.1,1.1c-.4.4-.9.8-1.6,1.3-2,1.7-3.4,4.1-4.2,7-.4,1.5-.6,4.3-.6,8.3v63.3l7,4.9,3-2.3,2,2.3.1.1Z"/>
        <path d="M30.3,221.3v-26c-11,.9-20.6,3.8-28.7,8.8l-1.6-1.7c10-10.8,20.1-17.1,30.3-18.8,0-10.4-2.8-18.1-8.3-23.1-4.8-4.3-9.8-6.9-15.1-7.8l-.7-2.3,24.1-16.8c0-6.5-1.1-11.7-3.3-15.7-1.6-2.8-4.4-4.2-8.3-4.2s-6.2,1.1-9.8,3.4l-2-2.4c5.7-6.2,12-9.3,18.8-9.3s10.2,1.7,13.5,5c3.4,3.3,5.1,7.9,5.2,13.6l6.9-5v-12.3h3v10.3l17.2-11.8c8.8,5.4,15.1,10.2,19,14.5,5.5,6.2,8.2,13.4,8.2,21.7v43.9l-20.7,18.4c-7.5-3.8-15.4-6.2-23.7-7.2v24.7h-24v.1ZM44.3,218.2h6.9v-95.5l-6.9,4.9v90.6ZM54.2,182.6c9.2.9,19.2,3.7,30,8.6v-21.7c-5.6-3.3-10.6-5-14.8-5s-9.4,1.7-15.2,5.2c0,0,0,12.9,0,12.9ZM54.2,166.1c5.6-3.1,10.8-4.6,15.4-4.6s9.4,1.4,14.6,4.2v-19.7c-5.8,3.5-11.2,5.3-15.9,5.3s-8.5-1.6-14.1-4.7c0,0,0,19.5,0,19.5ZM17.2,146.4c5.7,3.1,10.1,6.4,13.1,9.9v-18.8l-13.1,8.9h0ZM54.2,142.5c4.5,3.6,9.2,5.5,14.2,5.5h1.3c.4,0,.8-.1,1.3-.1,4.8-.6,9.2-2.4,13.2-5.6v-.4s0-.2.1-.3v-.7c0-5.6-2.2-10.5-6.6-14.6-2.9-2.8-7.5-5.8-13.9-9l-2.3-1.1-7.3,4.7v21.8-.2Z"/>
        <path d="M329.2,88.3l-13.6,11.1c-4.9-5-10.7-8.3-17.4-10.1v-2.3c3.3-1.5,4.9-4.9,4.9-10.2V20.4c0-4.4-.3-7.5-1-9.2-1.1-2.9-3.1-5.1-6-6.6l.7-2.3c4.6,2,8.3,4.4,11.2,7,3.9-4.4,9.2-7.5,15.9-9.2l.7,2.2c-.3.3-.7.7-1.1,1.1-.4.4-.9.8-1.6,1.3-2,1.7-3.4,4.1-4.2,7-.4,1.5-.6,4.3-.6,8.3v63.3l7,4.9,3-2.3,2,2.3.1.1Z"/>
        <path d="M299.5,87.4l-15.2,11.9c-.4-.4-.9-.8-1.4-1.3-.5-.4-1.1-.9-1.7-1.6-3-3.3-4.7-7.4-5.3-12.3l-19,15.2c-7.4-5.6-11.1-11.6-11.1-17.8s3.8-16,11.5-24.6l2-2.3-12.3-22.1s.1.1.4.1h.7s.2.1.3.1h1.6c6.9,0,12.7-2,17.5-6,.2,0,.4.2.6.3.2,0,.5.2.9.4,7.2,3.7,13.2,5.6,17.9,5.6s4.3-1.1,6.5-3.2l1.9,1.1c-3.3,5-4.9,9.7-5,14.2,0,1.1-.1,2.2-.1,3.3v33.3c0,3.4,1.3,5.3,3.6,5.6.6,0,1.7-.4,3.4-1.1l.3-.3h.1c.2-.1.4-.2.6-.4l1.4,1.7-.1.2ZM268,59.9l-7.2-3.2c-.3,0-.8,1.4-1.4,4.3-1.1,4.8-1.7,8.6-1.7,11.5,0,5,3,10.2,8.9,15.6l9.2-7.6v-17.4l-7.8-3.3v.1ZM275.8,43.2l-24.3-8,10.6,19.2,13.6,5.9v-17.1h.1Z"/>
        <path d="M193.2,85.7c2.6-1.4,3.9-4.7,3.9-9.8V18.2c0-4.4-.9-7.9-2.7-10.6l-1.6-1.6c-.3-.3-.6-.6-1-.9-.3-.3-.6-.6-1-1l.9-1.9c3.5,1.4,7.1,3.5,10.6,6.3,4.4-4.7,9.8-7.5,16.2-8.5l.4,1.3c-3.3,2.2-5.5,4.8-6.5,7.8-.9,2.3-1.3,5.7-1.3,10.2v24.4l20.4-17.1c3,2.9,4.8,4.7,5.6,5.6,1.8,2.2,2.9,4.5,3.3,6.7.5,2.3.7,5.3.7,8.9v39.2c-9.2,3.6-16.3,7.7-21.4,12.2-6.9-6.1-15.7-10.1-26.6-12.1v-1.6l.1.2ZM211.1,47.1v34.2l15.8,6.7v-38.2c0-5.7-1.4-9.9-4.3-12.3,0,0-11.5,9.6-11.5,9.6Z"/>
        <path d="M188.1,88.2c-2.5,1.1-4.6,2-6.5,2.9-1.8.9-3.3,1.6-4.3,2.2-1.9,1.1-3.7,2.1-5.5,3.2-1.7,1-3.3,2-4.6,3-8.4-6.3-17.1-9.9-26.1-10.6v-1.9c2.1-1.5,3.3-3.3,3.4-5.2.2-2.1.3-4,.4-5.7,0-1.7.1-3.3.1-4.7v-32.7c7.5-2.3,14.2-6.2,20.2-11.6,6.9,4.7,14.5,8.1,22.7,10.3v51l.2-.2ZM159.1,37.9v43.5l14.9,6.5v-43.5s-14.9-6.5-14.9-6.5Z"/>
        <path d="M146.5,88.3l-13.6,11.1c-4.9-5-10.7-8.3-17.4-10.1v-2.3c3.3-1.5,4.9-4.9,4.9-10.2V20.4c0-4.4-.3-7.5-1-9.2-1.1-2.9-3.1-5.1-6-6.6l.7-2.3c4.6,2,8.3,4.4,11.2,7,3.9-4.4,9.2-7.5,15.9-9.2l.7,2.2c-.3.3-.7.7-1.1,1.1-.4.4-.9.8-1.6,1.3-2,1.7-3.4,4.1-4.2,7-.4,1.5-.6,4.3-.6,8.3v63.3l7,4.9,3-2.3,2,2.3.1.1Z"/>
        <path d="M108.1,10.5l-21.7,17.2c7.9.9,14.3,3.5,19.1,7.9,5.4,4.8,8,11,8,18.7,0,13.1-6.1,24-18.2,32.7-11.1,7.9-23.4,11.9-36.8,11.9s-19-3.4-26.4-10.1c-7.5-6.7-11.2-15.1-11.2-25.3s2.8-18.7,8.5-26.3c2.4-3.2,5.2-6.4,8.3-9.6,3.3-3.4,7-6.7,11.3-10.2,3.6-2.9,7.3-5.7,10.9-8.6S67.2,3,70.8,0c11.2,5.9,20.8,9.1,28.9,9.5,2.3,0,4.7-.1,7.3-.7l1,1.6.1.1ZM69.1,43.5c-1,.5-2.2,1.1-3.6,2-1.3.8-2.9,1.7-4.7,2.9v10.6c0,5.2-1,8.8-3,10.8-.4.4-.8.8-1.3,1.3-.5.4-1.1.9-1.9,1.6-1.1.9-2.6,2-4.3,3.3-1.7,1.2-3.7,2.8-6,4.6,6.5,7.7,14.8,11.8,24.8,12.3v-49.4ZM72.2,92.8c5.2,0,10.1-1.4,14.6-4,4.9-2.8,8.4-6.4,10.6-10.9-4.3-2.1-8.1-3.2-11.5-3.2-4.8,0-9.4,1.4-13.8,4.3v13.8h.1ZM46.7,24.4c-8.2,8.7-12.3,18.5-12.3,29.4s2.6,16.3,7.8,24.1c3.1-3.5,4.6-9,4.6-16.4V24.4h-.1ZM72.2,74.8c4.6-2.3,9.1-3.4,13.6-3.4s8.5,1.2,13.2,3.6c1-2.2,1.7-4.4,2.2-6.6.6-2.3.9-4.5,1-6.7-4.9,2.9-9.8,4.3-14.6,4.3s-9.8-1.4-15.4-4.3v13.2-.1ZM72.2,57.7c4.5,3.3,9.2,4.9,14.1,5,5.7.2,11-1.4,15.6-4.9-1-5-3.3-9.1-7-12.3-3.6-3.3-7.9-4.9-12.9-4.9s-6.3.6-9.8,1.9c0,0,0,15.2,0,15.2ZM60.7,43.5l28.3-22.4c-11.7-3-21.1-6.1-28.3-9.3v31.7Z"/>
        <rect x="271.49" y="112.15" width="12.51" height="12.51" transform="translate(557.86 5.74) rotate(135)"/>
      </g>
      <g>
        <path d="M104.11,241.92c-.57-.12-1.22-.16-1.93-.13l-5.49.29.24,4.63,5.49-.29c.71-.04,1.35-.17,1.9-.39.55-.22.99-.54,1.32-.95.33-.41.47-.88.45-1.41-.03-.48-.22-.87-.58-1.15-.36-.28-.83-.48-1.4-.6Z"/>
        <path d="M73.39,225.36l2.4,46.01,213.75-11.13-2.4-46.01-213.75,11.13ZM112.86,247.87c-.8,1.42-1.94,2.55-3.41,3.4-1.47.85-3.15,1.32-5.04,1.42l-7.01.37.36,6.84-7.46.39-1.26-24.19,15.17-.79c1.77-.09,3.38.18,4.81.82,1.43.64,2.59,1.56,3.47,2.76.88,1.2,1.37,2.61,1.45,4.22.09,1.75-.26,3.33-1.07,4.75ZM155.65,245.28c.12,2.28-.32,4.34-1.33,6.17-1,1.83-2.46,3.3-4.38,4.42-1.92,1.12-4.21,1.74-6.88,1.88-2.65.14-4.99-.25-7.02-1.16-2.04-.91-3.64-2.22-4.83-3.94-1.19-1.72-1.84-3.71-1.96-6l-.66-12.61,7.53-.39.65,12.47c.06,1.11.35,2.06.88,2.86s1.23,1.41,2.1,1.83c.88.42,1.87.6,2.97.54s2.15-.34,3-.85c.85-.51,1.5-1.19,1.95-2.04s.65-1.84.59-2.94l-.65-12.47,7.36-.38.66,12.61ZM196.9,254.74l-22.67,1.18-1.26-24.19,7.46-.39.93,17.83,15.2-.79.33,6.36ZM234.8,249.3c-1.04,1.3-2.49,2.32-4.35,3.07-1.86.74-3.95,1.18-6.27,1.3-2.12.11-4.07.03-5.85-.23-1.78-.27-3.39-.64-4.84-1.12s-2.76-.98-3.94-1.49l2.63-6.06c2.25,1.08,4.47,1.84,6.66,2.25,2.19.42,4.11.58,5.74.5.46-.02.99-.07,1.6-.15.61-.08,1.14-.24,1.58-.48.45-.24.66-.63.63-1.16-.01-.25-.11-.46-.28-.63-.17-.16-.43-.29-.78-.39-.35-.1-.79-.17-1.31-.22-.52-.05-1.14-.09-1.86-.11-.72-.02-1.54-.04-2.46-.06-1.66-.03-3.18-.2-4.55-.51-1.37-.31-2.55-.75-3.55-1.32-1-.57-1.79-1.29-2.36-2.15-.58-.86-.89-1.85-.95-2.98-.07-1.34.2-2.53.82-3.59.61-1.06,1.5-1.97,2.65-2.72,1.15-.75,2.49-1.35,4.01-1.79,1.53-.44,3.16-.7,4.91-.79s3.46-.03,4.91.2c1.46.22,2.74.53,3.86.92,1.12.39,2.04.78,2.78,1.16l-2.81,5.24c-.78-.33-1.67-.59-2.69-.8-1.01-.2-2.04-.35-3.09-.45-1.05-.1-2.03-.12-2.95-.07-.87.05-1.65.13-2.34.24-.69.12-1.23.3-1.62.54s-.58.57-.56.98c.02.37.25.65.7.83.45.19,1,.31,1.66.36.66.06,1.33.09,2.01.09.68,0,1.25,0,1.72.03,1.39.04,2.77.13,4.15.25,1.38.12,2.64.4,3.78.82,1.14.43,2.07,1.1,2.79,2.02.72.92,1.12,2.2,1.2,3.83.09,1.8-.38,3.35-1.42,4.65ZM273.95,250.73l-23.53,1.23-1.26-24.19,22.91-1.19.31,6.05-15.75.82.16,3.07,14.48-.75.3,5.67-14.48.75.17,3.35,16.38-.85.31,6.05Z"/>
      </g>
    </g>
  </g>
</svg>